# Blender 5.2.0 LTS
# www.blender.org
mtllib Mirror.mtl
o RusticMirror_mirror_Cube.015
v 0.037086 0.220857 -0.079020
v 0.042048 0.433335 -0.076673
v 0.054350 0.432963 -0.069009
v 0.049388 0.220486 -0.071356
v -0.055046 0.221384 0.068052
v -0.050084 0.433861 0.070399
v 0.041435 0.433347 -0.076531
v 0.036474 0.220870 -0.078879
v -0.032274 0.234546 0.061676
v 0.040834 0.234135 -0.055696
v 0.033178 0.234366 -0.060466
v -0.039930 0.234777 0.056906
v 0.050554 0.433260 -0.061765
v -0.032809 0.433729 0.072072
v -0.027827 0.424025 0.064279
v 0.045726 0.423612 -0.053807
v -0.037023 0.432979 0.078537
v -0.041962 0.221475 0.076201
v -0.032286 0.238624 0.062702
v -0.028151 0.415700 0.064658
v 0.049557 0.220961 -0.070730
v 0.054496 0.432465 -0.068394
v 0.045897 0.415284 -0.054223
v 0.041762 0.238208 -0.056179
v -0.028289 0.415271 0.064050
v -0.032403 0.239073 0.062104
v -0.040060 0.239305 0.057334
v -0.035945 0.415502 0.059280
v -0.049601 0.438376 0.070684
v -0.037298 0.438004 0.078348
v 0.054221 0.437489 -0.068582
v 0.041918 0.437861 -0.076246
v -0.042471 0.216474 0.075901
v -0.054774 0.216846 0.068237
v 0.036746 0.216332 -0.078694
v 0.049048 0.215960 -0.071030
v -0.042601 0.221002 0.076329
v -0.037639 0.433479 0.078676
v -0.049942 0.433851 0.071012
v -0.054903 0.221374 0.068665
v 0.041175 0.238660 -0.056022
v 0.045289 0.414857 -0.054076
v 0.037633 0.415089 -0.058846
v 0.033518 0.238891 -0.060792
v 0.045160 0.419384 -0.053649
v -0.027948 0.419795 0.063722
v -0.035605 0.420026 0.058952
v 0.037503 0.419615 -0.058419
v 0.032906 0.238904 -0.060651
v 0.037020 0.415101 -0.058705
v -0.036088 0.415512 0.058667
v -0.040202 0.239315 0.056721
v 0.045579 0.220204 -0.064118
v -0.037785 0.220673 0.069719
v -0.032351 0.230303 0.062139
v 0.041202 0.229890 -0.055947
vn 0.5287 -0.0030 -0.8488
vn -0.8485 0.0257 -0.5286
vn 0.0233 0.9997 0.0110
vn 0.8488 0.0113 0.5286
vn 0.8488 0.0112 0.5286
vn 0.8276 -0.0255 0.5608
vn 0.8682 -0.0257 0.4956
vn 0.0234 0.9997 0.0110
vn -0.0233 -0.9997 -0.0110
vn -0.5287 0.0030 0.8488
vn 0.8485 -0.0256 0.5286
vn 0.8807 -0.1172 0.4589
vn 0.8807 -0.1171 0.4590
vn 0.8850 0.0657 0.4610
vn 0.8849 0.0657 0.4611
vn 0.7999 -0.1167 0.5886
vn 0.7999 -0.1168 0.5886
vn 0.8042 0.0662 0.5907
vn 0.8042 0.0663 0.5907
vn 0.8042 0.0662 0.5906
vn -0.2270 -0.0533 -0.9724
vn -0.2239 0.0853 -0.9709
vn -0.9731 -0.0491 0.2250
vn -0.9731 -0.0491 0.2251
vn -0.9699 0.0895 0.2265
vn -0.9700 0.0895 0.2261
vn 0.9999 0.0059 -0.0120
vn 0.9999 0.0060 -0.0121
vn 0.9999 0.0060 -0.0120
vn 0.4301 0.0090 0.9027
vn 0.4301 0.0091 0.9027
vn 0.4291 -0.0491 0.9019
vn 0.4292 -0.0491 0.9019
vn 0.9985 -0.0524 -0.0129
vn 0.9731 0.0491 -0.2250
vn 0.9731 0.0491 -0.2252
vn 0.9731 0.0491 -0.2251
vn 0.2270 0.0533 0.9724
vn 0.2239 -0.0853 0.9709
vn 0.9699 -0.0895 -0.2266
vn 0.9699 -0.0895 -0.2265
vn 0.8368 -0.1656 0.5218
vn 0.8368 -0.1658 0.5218
vn 0.9693 -0.0199 -0.2450
vn 0.8434 0.1148 0.5249
vn 0.8434 0.1150 0.5249
vn 0.2073 -0.0156 0.9781
vn 0.2075 -0.0156 0.9781
vn -0.5284 -0.0948 0.8437
vn -0.5284 -0.0949 0.8437
vn -0.5285 -0.0948 0.8437
vn -0.5238 0.1008 0.8458
vn -0.5239 0.1008 0.8458
vn -0.9737 0.0202 0.2268
vn -0.9738 0.0202 0.2266
vn -0.8467 -0.0722 -0.5271
vn -0.8421 0.1232 -0.5250
vn -0.8421 0.1233 -0.5250
vn -0.2259 0.0160 -0.9740
vn 0.5239 -0.1003 -0.8458
vn 0.5285 0.0948 -0.8437
vn 0.5284 0.0947 -0.8437
vn 0.5285 0.0948 -0.8436
vn 0.8481 0.0422 0.5281
vn 0.8481 0.0423 0.5281
vn 0.2449 -0.0164 0.9694
vn 0.2450 -0.0164 0.9694
vn 0.8449 -0.0934 0.5266
vn 0.8449 -0.0935 0.5266
vn 0.9781 -0.0206 -0.2072
vn 0.9782 -0.0206 -0.2068
vn 0.8591 -0.0078 0.5118
vn 0.8591 -0.0079 0.5117
vn 0.8583 -0.0435 0.5114
vn 0.8381 -0.0077 0.5454
vn 0.8381 -0.0078 0.5454
vn 0.8373 -0.0434 0.5450
vn 0.8373 -0.0435 0.5450
vn 0.8373 -0.0434 0.5451
vn 0.8467 0.0722 0.5271
vn 0.2261 -0.0160 0.9740
vn 0.2260 -0.0160 0.9740
vn 0.8421 -0.1234 0.5250
vn 0.8421 -0.1233 0.5250
vn 0.9737 -0.0202 -0.2268
vn 0.9738 -0.0202 -0.2266
vn 0.9738 -0.0202 -0.2267
vn -0.5239 0.1004 0.8458
vn -0.5239 0.1003 0.8458
vn 0.5285 0.0949 -0.8436
vn 0.5284 0.0948 -0.8436
vn 0.5239 -0.1007 -0.8458
vn 0.5239 -0.1008 -0.8458
vn -0.5285 -0.0947 0.8437
vn -0.5284 -0.0947 0.8437
vn -0.5285 -0.0946 0.8436
vn 0.8471 -0.0625 0.5278
vn 0.8470 -0.0625 0.5278
vn 0.8807 -0.1171 0.4589
vn 0.9985 -0.0524 -0.0128
vn 0.8592 -0.0079 0.5116
vn -0.5239 0.1003 0.8459
vn 0.5284 0.0948 -0.8437
vt 0.827488 0.005809
vt 0.749071 0.114757
vt 0.749900 0.012421
vt 0.621511 0.936382
vt 0.289627 0.364399
vt 0.621511 0.364399
vt 0.169575 0.229789
vt 0.142001 0.686403
vt 0.139788 0.229933
vt 0.052050 0.135458
vt 0.044877 0.687544
vt 0.042716 0.223047
vt 0.746594 0.142089
vt 0.648574 0.253315
vt 0.645058 0.135256
vt 0.746594 0.012603
vt 0.648575 0.123829
vt 0.645058 0.005771
vt 0.640914 0.135093
vt 0.585873 0.246922
vt 0.584797 0.142331
vt 0.126553 0.746822
vt 0.064420 0.005001
vt 0.126553 0.005001
vt 0.199329 0.005001
vt 0.261462 0.746820
vt 0.199329 0.746820
vt 0.749071 0.244243
vt 0.827487 0.135295
vt 0.827354 0.247541
vt 0.640914 0.005607
vt 0.585874 0.117436
vt 0.584797 0.012845
vt 0.034666 0.229796
vt 0.007093 0.686406
vt 0.004878 0.229941
vt 0.909724 0.782933
vt 0.657662 0.364458
vt 0.909724 0.364458
vt 0.702633 0.004047
vt 0.745733 0.114709
vt 0.747717 0.118406
vt 0.703045 0.124104
vt 0.703044 0.253589
vt 0.747716 0.247892
vt 0.702633 0.133533
vt 0.749899 0.141907
vt 0.827968 0.002119
vt 0.830988 0.004967
vt 0.827984 0.121610
vt 0.827355 0.118054
vt 0.830988 0.118796
vt 0.827983 0.251097
vt 0.830987 0.248283
vt 0.827968 0.131604
vt 0.830987 0.134453
vt 0.643531 0.257523
vt 0.647049 0.258787
vt 0.639695 0.001671
vt 0.644647 0.124088
vt 0.647050 0.129301
vt 0.643532 0.128037
vt 0.639695 0.131156
vt 0.410322 0.232615
vt 0.408506 0.229470
vt 0.412138 0.229470
vt 0.463056 0.096266
vt 0.464873 0.099412
vt 0.461240 0.099412
vt 0.464873 0.199392
vt 0.463057 0.202538
vt 0.461240 0.199392
vt 0.410322 0.126343
vt 0.412138 0.129489
vt 0.408506 0.129489
vt 0.188578 0.718420
vt 0.186959 0.135457
vt 0.053669 0.718426
vt 0.745733 0.244195
vt 0.748438 0.138451
vt 0.274409 0.004893
vt 0.274409 0.746712
vt 0.139500 0.004893
vt 0.139500 0.746714
vt 0.748439 0.008965
vt 0.177626 0.223039
vt 0.171789 0.686258
vt 0.036880 0.686261
vt 0.644646 0.253574
vt 0.643279 0.000185
vt 0.643279 0.129670
vt 0.944858 0.364399
vt 0.622527 0.782992
vt 0.657662 0.782933
vt 0.584287 0.008983
vt 0.585446 0.250632
vt 0.584287 0.138469
vt 0.179786 0.687541
vt 0.289625 0.936383
vt 0.064420 0.746822
vt 0.261462 0.005001
vt 0.944858 0.782873
vt 0.622528 0.364517
vt 0.585447 0.121147
s 1
usemtl Mirror
f 1/1/1 3/2/1 4/3/1
f 5/4/2 7/5/2 8/6/2
f 9/7/3 11/8/3 12/9/3
f 13/10/4 15/11/5 16/12/4
f 17/13/6 19/14/6 20/15/6
f 21/16/7 23/17/7 24/18/7
f 25/19/1 27/20/1 28/21/1
f 29/22/8 31/23/3 32/24/3
f 33/25/9 35/26/9 36/27/9
f 37/28/10 39/29/10 40/30/10
f 41/31/10 43/32/10 44/33/10
f 45/34/9 47/35/9 48/36/9
f 49/37/11 51/38/11 52/39/11
f 53/40/12 4/3/12 21/16/13
f 22/41/14 31/42/14 13/43/15
f 54/44/16 37/28/17 33/45/16
f 14/46/18 38/47/19 17/13/20
f 35/48/21 8/49/21 1/1/21
f 32/50/22 2/51/22 7/52/22
f 34/53/23 40/30/24 5/54/23
f 29/55/25 6/56/26 39/29/26
f 9/57/27 19/14/28 55/58/29
f 10/59/30 24/18/30 41/31/31
f 42/60/32 16/61/32 45/62/33
f 46/63/34 20/15/34 25/19/34
f 12/64/35 52/65/36 27/66/37
f 11/67/38 44/68/38 49/69/38
f 43/70/39 48/71/39 50/72/39
f 47/73/40 28/74/41 51/75/41
f 33/25/42 53/76/43 54/77/42
f 4/3/44 22/41/44 21/16/44
f 31/23/45 14/78/46 13/10/45
f 38/47/47 18/79/48 17/13/47
f 34/53/49 37/28/50 40/30/51
f 30/80/52 39/29/53 38/47/52
f 6/56/54 40/30/55 39/29/54
f 35/26/56 5/81/56 8/82/56
f 29/22/57 7/83/58 6/84/57
f 2/51/59 8/49/59 7/52/59
f 36/85/60 1/1/60 4/3/60
f 32/50/61 3/2/62 2/51/63
f 55/86/64 10/87/65 9/7/64
f 24/18/66 42/60/67 41/31/67
f 16/12/68 46/88/69 45/34/68
f 20/15/70 26/89/71 25/19/70
f 13/43/72 23/17/73 22/41/72
f 56/90/74 21/16/74 24/18/74
f 17/13/75 15/91/76 14/46/75
f 19/14/77 54/44/78 55/58/79
f 12/92/80 49/37/80 52/39/80
f 44/68/81 50/72/82 49/69/82
f 48/93/83 51/38/84 50/94/83
f 28/74/85 52/65/86 51/75/87
f 41/31/88 11/95/89 10/59/88
f 27/20/90 9/57/91 12/96/90
f 47/97/92 25/19/93 28/21/92
f 45/62/94 43/32/95 42/60/96
f 54/77/97 56/98/98 55/86/97
f 1/1/1 2/51/1 3/2/1
f 5/4/2 6/99/2 7/5/2
f 9/7/3 10/87/3 11/8/3
f 13/10/4 14/78/5 15/11/5
f 17/13/6 18/79/6 19/14/6
f 21/16/7 22/41/7 23/17/7
f 25/19/1 26/89/1 27/20/1
f 29/22/8 30/100/8 31/23/3
f 33/25/9 34/101/9 35/26/9
f 37/28/10 38/47/10 39/29/10
f 41/31/10 42/60/10 43/32/10
f 45/34/9 46/88/9 47/35/9
f 49/37/11 50/94/11 51/38/11
f 53/40/12 36/85/99 4/3/12
f 22/41/14 3/2/15 31/42/14
f 54/44/16 18/79/16 37/28/17
f 14/46/18 30/80/18 38/47/19
f 9/57/27 26/89/28 19/14/28
f 10/59/30 56/90/30 24/18/30
f 42/60/32 23/17/32 16/61/32
f 46/63/34 15/91/100 20/15/34
f 33/25/42 36/27/43 53/76/43
f 4/3/44 3/2/44 22/41/44
f 31/23/45 30/100/46 14/78/46
f 38/47/47 37/28/48 18/79/48
f 34/53/49 33/45/50 37/28/50
f 30/80/52 29/55/53 39/29/53
f 6/56/54 5/54/55 40/30/55
f 35/26/56 34/101/56 5/81/56
f 29/22/57 32/24/58 7/83/58
f 2/51/59 1/1/59 8/49/59
f 36/85/60 35/48/60 1/1/60
f 32/50/61 31/42/62 3/2/62
f 55/86/64 56/98/65 10/87/65
f 24/18/66 23/17/66 42/60/67
f 16/12/68 15/11/69 46/88/69
f 20/15/70 19/14/71 26/89/71
f 13/43/72 16/61/101 23/17/73
f 56/90/74 53/40/74 21/16/74
f 17/13/75 20/15/76 15/91/76
f 19/14/77 18/79/78 54/44/78
f 12/92/80 11/102/80 49/37/80
f 44/68/81 43/70/82 50/72/82
f 48/93/83 47/103/84 51/38/84
f 28/74/85 27/66/87 52/65/86
f 41/31/88 44/33/102 11/95/89
f 27/20/90 26/89/103 9/57/91
f 47/97/92 46/63/93 25/19/93
f 45/62/94 48/104/49 43/32/95
f 54/77/97 53/76/98 56/98/98
